<?xml version="1.0" standalone="no"?><svg xmlns="http://www.w3.org/2000/svg" viewBox="0 0 1440 320"><path fill="#0099ff" fill-opacity="1" d="M0,192L20,208C40,224,80,256,120,229.3C160,203,200,117,240,112C280,107,320,181,360,202.7C400,224,440,192,480,154.7C520,117,560,75,600,90.7C640,107,680,181,720,202.7C760,224,800,192,840,181.3C880,171,920,181,960,176C1000,171,1040,149,1080,160C1120,171,1160,213,1200,197.3C1240,181,1280,107,1320,85.3C1360,64,1400,96,1420,112L1440,128L1440,320L1420,320C1400,320,1360,320,1320,320C1280,320,1240,320,1200,320C1160,320,1120,320,1080,320C1040,320,1000,320,960,320C920,320,880,320,840,320C800,320,760,320,720,320C680,320,640,320,600,320C560,320,520,320,480,320C440,320,400,320,360,320C320,320,280,320,240,320C200,320,160,320,120,320C80,320,40,320,20,320L0,320Z"></path></svg>